<svg height="900" viewBox="0 0 1440 900" width="1440" xmlns="http://www.w3.org/2000/svg" xmlns:xlink="http://www.w3.org/1999/xlink"><radialGradient id="a" cx="51.350567%" cy="50%" r="50%"><stop offset="0" stop-opacity="0"/><stop offset=".435155909" stop-opacity="0"/><stop offset="1"/></radialGradient><g fill="none" fill-rule="evenodd"><path d="m0 0h1440v900h-1440z" fill="#000"/><g fill-rule="nonzero" transform="matrix(0 -1 1 0 179 991)"><path d="m.5.5h1083v1078h-1083z" fill="#000"/><g fill="#00ea75"><ellipse cx="250.571429" cy="507.775148" rx="2.857143" ry="2.852071"/><ellipse cx="799.142857" cy="507.775148" rx="2.857143" ry="2.852071"/><ellipse cx="250.571429" cy="781.573964" rx="2.857143" ry="2.852071"/><ellipse cx="799.142857" cy="781.573964" rx="2.857143" ry="2.852071"/><ellipse cx="524.857143" cy="507.775148" rx="2.857143" ry="2.852071"/><ellipse cx="524.857143" cy="781.573964" rx="2.857143" ry="2.852071"/><ellipse cx="250.571429" cy="644.674556" rx="2.857143" ry="2.852071"/><ellipse cx="799.142857" cy="644.674556" rx="2.857143" ry="2.852071"/><ellipse cx="250.571429" cy="918.473373" rx="2.857143" ry="2.852071"/><ellipse cx="799.142857" cy="918.473373" rx="2.857143" ry="2.852071"/><ellipse cx="524.857143" cy="644.674556" rx="2.857143" ry="2.852071"/><ellipse cx="524.857143" cy="918.473373" rx="2.857143" ry="2.852071"/><ellipse cx="387.714286" cy="507.775148" rx="2.857143" ry="2.852071"/><ellipse cx="936.285714" cy="507.775148" rx="2.857143" ry="2.852071"/><ellipse cx="387.714286" cy="781.573964" rx="2.857143" ry="2.852071"/><ellipse cx="936.285714" cy="781.573964" rx="2.857143" ry="2.852071"/><ellipse cx="113.428571" cy="507.775148" rx="2.857143" ry="2.852071"/><ellipse cx="662" cy="507.775148" rx="2.857143" ry="2.852071"/><ellipse cx="113.428571" cy="781.573964" rx="2.857143" ry="2.852071"/><ellipse cx="662" cy="781.573964" rx="2.857143" ry="2.852071"/><ellipse cx="387.714286" cy="644.674556" rx="2.857143" ry="2.852071"/><ellipse cx="936.285714" cy="644.674556" rx="2.857143" ry="2.852071"/><ellipse cx="387.714286" cy="918.473373" rx="2.857143" ry="2.852071"/><ellipse cx="936.285714" cy="918.473373" rx="2.857143" ry="2.852071"/><ellipse cx="113.428571" cy="644.674556" rx="2.857143" ry="2.852071"/><ellipse cx="662" cy="644.674556" rx="2.857143" ry="2.852071"/><ellipse cx="113.428571" cy="918.473373" rx="2.857143" ry="2.852071"/><ellipse cx="662" cy="918.473373" rx="2.857143" ry="2.852071"/><ellipse cx="250.571429" cy="576.224852" rx="2.857143" ry="2.852071"/><ellipse cx="799.142857" cy="576.224852" rx="2.857143" ry="2.852071"/><ellipse cx="250.571429" cy="850.023669" rx="2.857143" ry="2.852071"/><ellipse cx="799.142857" cy="850.023669" rx="2.857143" ry="2.852071"/><ellipse cx="524.857143" cy="576.224852" rx="2.857143" ry="2.852071"/><ellipse cx="524.857143" cy="850.023669" rx="2.857143" ry="2.852071"/><ellipse cx="250.571429" cy="713.12426" rx="2.857143" ry="2.852071"/><ellipse cx="799.142857" cy="713.12426" rx="2.857143" ry="2.852071"/><ellipse cx="250.571429" cy="986.923077" rx="2.857143" ry="2.852071"/><ellipse cx="799.142857" cy="986.923077" rx="2.857143" ry="2.852071"/><ellipse cx="524.857143" cy="713.12426" rx="2.857143" ry="2.852071"/><ellipse cx="524.857143" cy="986.923077" rx="2.857143" ry="2.852071"/><ellipse cx="387.714286" cy="576.224852" rx="2.857143" ry="2.852071"/><ellipse cx="936.285714" cy="576.224852" rx="2.857143" ry="2.852071"/><ellipse cx="387.714286" cy="850.023669" rx="2.857143" ry="2.852071"/><ellipse cx="936.285714" cy="850.023669" rx="2.857143" ry="2.852071"/><ellipse cx="113.428571" cy="576.224852" rx="2.857143" ry="2.852071"/><ellipse cx="662" cy="576.224852" rx="2.857143" ry="2.852071"/><ellipse cx="113.428571" cy="850.023669" rx="2.857143" ry="2.852071"/><ellipse cx="662" cy="850.023669" rx="2.857143" ry="2.852071"/><ellipse cx="387.714286" cy="713.12426" rx="2.857143" ry="2.852071"/><ellipse cx="936.285714" cy="713.12426" rx="2.857143" ry="2.852071"/><ellipse cx="387.714286" cy="986.923077" rx="2.857143" ry="2.852071"/><ellipse cx="936.285714" cy="986.923077" rx="2.857143" ry="2.852071"/><ellipse cx="113.428571" cy="713.12426" rx="2.857143" ry="2.852071"/><ellipse cx="662" cy="713.12426" rx="2.857143" ry="2.852071"/><ellipse cx="113.428571" cy="986.923077" rx="2.857143" ry="2.852071"/><ellipse cx="662" cy="986.923077" rx="2.857143" ry="2.852071"/><ellipse cx="319.142857" cy="507.775148" rx="2.857143" ry="2.852071"/><ellipse cx="867.714286" cy="507.775148" rx="2.857143" ry="2.852071"/><ellipse cx="319.142857" cy="781.573964" rx="2.857143" ry="2.852071"/><ellipse cx="867.714286" cy="781.573964" rx="2.857143" ry="2.852071"/><ellipse cx="593.428571" cy="507.775148" rx="2.857143" ry="2.852071"/><ellipse cx="593.428571" cy="781.573964" rx="2.857143" ry="2.852071"/><ellipse cx="319.142857" cy="644.674556" rx="2.857143" ry="2.852071"/><ellipse cx="867.714286" cy="644.674556" rx="2.857143" ry="2.852071"/><ellipse cx="319.142857" cy="918.473373" rx="2.857143" ry="2.852071"/><ellipse cx="867.714286" cy="918.473373" rx="2.857143" ry="2.852071"/><ellipse cx="593.428571" cy="644.674556" rx="2.857143" ry="2.852071"/><ellipse cx="593.428571" cy="918.473373" rx="2.857143" ry="2.852071"/><ellipse cx="456.285714" cy="507.775148" rx="2.857143" ry="2.852071"/><ellipse cx="456.285714" cy="781.573964" rx="2.857143" ry="2.852071"/><ellipse cx="182" cy="507.775148" rx="2.857143" ry="2.852071"/><ellipse cx="730.571429" cy="507.775148" rx="2.857143" ry="2.852071"/><ellipse cx="182" cy="781.573964" rx="2.857143" ry="2.852071"/><ellipse cx="730.571429" cy="781.573964" rx="2.857143" ry="2.852071"/><ellipse cx="456.285714" cy="644.674556" rx="2.857143" ry="2.852071"/><ellipse cx="456.285714" cy="918.473373" rx="2.857143" ry="2.852071"/><ellipse cx="182" cy="644.674556" rx="2.857143" ry="2.852071"/><ellipse cx="730.571429" cy="644.674556" rx="2.857143" ry="2.852071"/><ellipse cx="182" cy="918.473373" rx="2.857143" ry="2.852071"/><ellipse cx="730.571429" cy="918.473373" rx="2.857143" ry="2.852071"/><ellipse cx="319.142857" cy="576.224852" rx="2.857143" ry="2.852071"/><ellipse cx="867.714286" cy="576.224852" rx="2.857143" ry="2.852071"/><ellipse cx="319.142857" cy="850.023669" rx="2.857143" ry="2.852071"/><ellipse cx="867.714286" cy="850.023669" rx="2.857143" ry="2.852071"/><ellipse cx="593.428571" cy="576.224852" rx="2.857143" ry="2.852071"/><ellipse cx="593.428571" cy="850.023669" rx="2.857143" ry="2.852071"/><ellipse cx="319.142857" cy="713.12426" rx="2.857143" ry="2.852071"/><ellipse cx="867.714286" cy="713.12426" rx="2.857143" ry="2.852071"/><ellipse cx="319.142857" cy="986.923077" rx="2.857143" ry="2.852071"/><ellipse cx="867.714286" cy="986.923077" rx="2.857143" ry="2.852071"/><ellipse cx="593.428571" cy="713.12426" rx="2.857143" ry="2.852071"/><ellipse cx="593.428571" cy="986.923077" rx="2.857143" ry="2.852071"/><ellipse cx="456.285714" cy="576.224852" rx="2.857143" ry="2.852071"/><ellipse cx="456.285714" cy="850.023669" rx="2.857143" ry="2.852071"/><ellipse cx="182" cy="576.224852" rx="2.857143" ry="2.852071"/><ellipse cx="730.571429" cy="576.224852" rx="2.857143" ry="2.852071"/><ellipse cx="182" cy="850.023669" rx="2.857143" ry="2.852071"/><ellipse cx="730.571429" cy="850.023669" rx="2.857143" ry="2.852071"/><ellipse cx="456.285714" cy="713.12426" rx="2.857143" ry="2.852071"/><ellipse cx="456.285714" cy="986.923077" rx="2.857143" ry="2.852071"/><ellipse cx="182" cy="713.12426" rx="2.857143" ry="2.852071"/><ellipse cx="730.571429" cy="713.12426" rx="2.857143" ry="2.852071"/><ellipse cx="182" cy="986.923077" rx="2.857143" ry="2.852071"/><ellipse cx="730.571429" cy="986.923077" rx="2.857143" ry="2.852071"/><ellipse cx="250.571429" cy="542" rx="2.857143" ry="2.852071"/><ellipse cx="799.142857" cy="542" rx="2.857143" ry="2.852071"/><ellipse cx="250.571429" cy="815.798817" rx="2.857143" ry="2.852071"/><ellipse cx="799.142857" cy="815.798817" rx="2.857143" ry="2.852071"/><ellipse cx="524.857143" cy="542" rx="2.857143" ry="2.852071"/><ellipse cx="524.857143" cy="815.798817" rx="2.857143" ry="2.852071"/><ellipse cx="250.571429" cy="678.899408" rx="2.857143" ry="2.852071"/><ellipse cx="799.142857" cy="678.899408" rx="2.857143" ry="2.852071"/><ellipse cx="250.571429" cy="952.698225" rx="2.857143" ry="2.852071"/><ellipse cx="799.142857" cy="952.698225" rx="2.857143" ry="2.852071"/><ellipse cx="524.857143" cy="678.899408" rx="2.857143" ry="2.852071"/><ellipse cx="524.857143" cy="952.698225" rx="2.857143" ry="2.852071"/><ellipse cx="387.714286" cy="542" rx="2.857143" ry="2.852071"/><ellipse cx="936.285714" cy="542" rx="2.857143" ry="2.852071"/><ellipse cx="387.714286" cy="815.798817" rx="2.857143" ry="2.852071"/><ellipse cx="936.285714" cy="815.798817" rx="2.857143" ry="2.852071"/><ellipse cx="113.428571" cy="542" rx="2.857143" ry="2.852071"/><ellipse cx="662" cy="542" rx="2.857143" ry="2.852071"/><ellipse cx="113.428571" cy="815.798817" rx="2.857143" ry="2.852071"/><ellipse cx="662" cy="815.798817" rx="2.857143" ry="2.852071"/><ellipse cx="387.714286" cy="678.899408" rx="2.857143" ry="2.852071"/><ellipse cx="936.285714" cy="678.899408" rx="2.857143" ry="2.852071"/><ellipse cx="387.714286" cy="952.698225" rx="2.857143" ry="2.852071"/><ellipse cx="936.285714" cy="952.698225" rx="2.857143" ry="2.852071"/><ellipse cx="113.428571" cy="678.899408" rx="2.857143" ry="2.852071"/><ellipse cx="662" cy="678.899408" rx="2.857143" ry="2.852071"/><ellipse cx="113.428571" cy="952.698225" rx="2.857143" ry="2.852071"/><ellipse cx="662" cy="952.698225" rx="2.857143" ry="2.852071"/><ellipse cx="250.571429" cy="610.449704" rx="2.857143" ry="2.852071"/><ellipse cx="799.142857" cy="610.449704" rx="2.857143" ry="2.852071"/><ellipse cx="250.571429" cy="884.248521" rx="2.857143" ry="2.852071"/><ellipse cx="799.142857" cy="884.248521" rx="2.857143" ry="2.852071"/><ellipse cx="524.857143" cy="610.449704" rx="2.857143" ry="2.852071"/><ellipse cx="524.857143" cy="884.248521" rx="2.857143" ry="2.852071"/><ellipse cx="250.571429" cy="747.349112" rx="2.857143" ry="2.852071"/><ellipse cx="799.142857" cy="747.349112" rx="2.857143" ry="2.852071"/><ellipse cx="250.571429" cy="1021.147929" rx="2.857143" ry="2.852071"/><ellipse cx="799.142857" cy="1021.147929" rx="2.857143" ry="2.852071"/><ellipse cx="524.857143" cy="747.349112" rx="2.857143" ry="2.852071"/><ellipse cx="524.857143" cy="1021.147929" rx="2.857143" ry="2.852071"/><ellipse cx="387.714286" cy="610.449704" rx="2.857143" ry="2.852071"/><ellipse cx="936.285714" cy="610.449704" rx="2.857143" ry="2.852071"/><ellipse cx="387.714286" cy="884.248521" rx="2.857143" ry="2.852071"/><ellipse cx="936.285714" cy="884.248521" rx="2.857143" ry="2.852071"/><ellipse cx="113.428571" cy="610.449704" rx="2.857143" ry="2.852071"/><ellipse cx="662" cy="610.449704" rx="2.857143" ry="2.852071"/><ellipse cx="113.428571" cy="884.248521" rx="2.857143" ry="2.852071"/><ellipse cx="662" cy="884.248521" rx="2.857143" ry="2.852071"/><ellipse cx="387.714286" cy="747.349112" rx="2.857143" ry="2.852071"/><ellipse cx="936.285714" cy="747.349112" rx="2.857143" ry="2.852071"/><ellipse cx="387.714286" cy="1021.147929" rx="2.857143" ry="2.852071"/><ellipse cx="936.285714" cy="1021.147929" rx="2.857143" ry="2.852071"/><ellipse cx="113.428571" cy="747.349112" rx="2.857143" ry="2.852071"/><ellipse cx="662" cy="747.349112" rx="2.857143" ry="2.852071"/><ellipse cx="113.428571" cy="1021.147929" rx="2.857143" ry="2.852071"/><ellipse cx="662" cy="1021.147929" rx="2.857143" ry="2.852071"/><ellipse cx="319.142857" cy="542" rx="2.857143" ry="2.852071"/><ellipse cx="867.714286" cy="542" rx="2.857143" ry="2.852071"/><ellipse cx="319.142857" cy="815.798817" rx="2.857143" ry="2.852071"/><ellipse cx="867.714286" cy="815.798817" rx="2.857143" ry="2.852071"/><ellipse cx="593.428571" cy="542" rx="2.857143" ry="2.852071"/><ellipse cx="593.428571" cy="815.798817" rx="2.857143" ry="2.852071"/><ellipse cx="319.142857" cy="678.899408" rx="2.857143" ry="2.852071"/><ellipse cx="867.714286" cy="678.899408" rx="2.857143" ry="2.852071"/><ellipse cx="319.142857" cy="952.698225" rx="2.857143" ry="2.852071"/><ellipse cx="867.714286" cy="952.698225" rx="2.857143" ry="2.852071"/><ellipse cx="593.428571" cy="678.899408" rx="2.857143" ry="2.852071"/><ellipse cx="593.428571" cy="952.698225" rx="2.857143" ry="2.852071"/><ellipse cx="456.285714" cy="542" rx="2.857143" ry="2.852071"/><ellipse cx="456.285714" cy="815.798817" rx="2.857143" ry="2.852071"/><ellipse cx="182" cy="542" rx="2.857143" ry="2.852071"/><ellipse cx="730.571429" cy="542" rx="2.857143" ry="2.852071"/><ellipse cx="182" cy="815.798817" rx="2.857143" ry="2.852071"/><ellipse cx="730.571429" cy="815.798817" rx="2.857143" ry="2.852071"/><ellipse cx="456.285714" cy="678.899408" rx="2.857143" ry="2.852071"/><ellipse cx="456.285714" cy="952.698225" rx="2.857143" ry="2.852071"/><ellipse cx="182" cy="678.899408" rx="2.857143" ry="2.852071"/><ellipse cx="730.571429" cy="678.899408" rx="2.857143" ry="2.852071"/><ellipse cx="182" cy="952.698225" rx="2.857143" ry="2.852071"/><ellipse cx="730.571429" cy="952.698225" rx="2.857143" ry="2.852071"/><ellipse cx="319.142857" cy="610.449704" rx="2.857143" ry="2.852071"/><ellipse cx="867.714286" cy="610.449704" rx="2.857143" ry="2.852071"/><ellipse cx="319.142857" cy="884.248521" rx="2.857143" ry="2.852071"/><ellipse cx="867.714286" cy="884.248521" rx="2.857143" ry="2.852071"/><ellipse cx="593.428571" cy="610.449704" rx="2.857143" ry="2.852071"/><ellipse cx="593.428571" cy="884.248521" rx="2.857143" ry="2.852071"/><ellipse cx="319.142857" cy="747.349112" rx="2.857143" ry="2.852071"/><ellipse cx="867.714286" cy="747.349112" rx="2.857143" ry="2.852071"/><ellipse cx="319.142857" cy="1021.147929" rx="2.857143" ry="2.852071"/><ellipse cx="867.714286" cy="1021.147929" rx="2.857143" ry="2.852071"/><ellipse cx="593.428571" cy="747.349112" rx="2.857143" ry="2.852071"/><ellipse cx="593.428571" cy="1021.147929" rx="2.857143" ry="2.852071"/><ellipse cx="456.285714" cy="610.449704" rx="2.857143" ry="2.852071"/><ellipse cx="456.285714" cy="884.248521" rx="2.857143" ry="2.852071"/><ellipse cx="182" cy="610.449704" rx="2.857143" ry="2.852071"/><ellipse cx="730.571429" cy="610.449704" rx="2.857143" ry="2.852071"/><ellipse cx="182" cy="884.248521" rx="2.857143" ry="2.852071"/><ellipse cx="730.571429" cy="884.248521" rx="2.857143" ry="2.852071"/><ellipse cx="456.285714" cy="747.349112" rx="2.857143" ry="2.852071"/><ellipse cx="456.285714" cy="1021.147929" rx="2.857143" ry="2.852071"/><ellipse cx="182" cy="747.349112" rx="2.857143" ry="2.852071"/><ellipse cx="730.571429" cy="747.349112" rx="2.857143" ry="2.852071"/><ellipse cx="182" cy="1021.147929" rx="2.857143" ry="2.852071"/><ellipse cx="730.571429" cy="1021.147929" rx="2.857143" ry="2.852071"/><ellipse cx="284.857143" cy="507.775148" rx="2.857143" ry="2.852071"/><ellipse cx="833.428571" cy="507.775148" rx="2.857143" ry="2.852071"/><ellipse cx="284.857143" cy="781.573964" rx="2.857143" ry="2.852071"/><ellipse cx="833.428571" cy="781.573964" rx="2.857143" ry="2.852071"/><ellipse cx="559.142857" cy="507.775148" rx="2.857143" ry="2.852071"/><ellipse cx="559.142857" cy="781.573964" rx="2.857143" ry="2.852071"/><ellipse cx="284.857143" cy="644.674556" rx="2.857143" ry="2.852071"/><ellipse cx="833.428571" cy="644.674556" rx="2.857143" ry="2.852071"/><ellipse cx="284.857143" cy="918.473373" rx="2.857143" ry="2.852071"/><ellipse cx="833.428571" cy="918.473373" rx="2.857143" ry="2.852071"/><ellipse cx="559.142857" cy="644.674556" rx="2.857143" ry="2.852071"/><ellipse cx="559.142857" cy="918.473373" rx="2.857143" ry="2.852071"/><ellipse cx="422" cy="507.775148" rx="2.857143" ry="2.852071"/><ellipse cx="970.571429" cy="507.775148" rx="2.857143" ry="2.852071"/><ellipse cx="422" cy="781.573964" rx="2.857143" ry="2.852071"/><ellipse cx="970.571429" cy="781.573964" rx="2.857143" ry="2.852071"/><ellipse cx="147.714286" cy="507.775148" rx="2.857143" ry="2.852071"/><ellipse cx="696.285714" cy="507.775148" rx="2.857143" ry="2.852071"/><ellipse cx="147.714286" cy="781.573964" rx="2.857143" ry="2.852071"/><ellipse cx="696.285714" cy="781.573964" rx="2.857143" ry="2.852071"/><ellipse cx="422" cy="644.674556" rx="2.857143" ry="2.852071"/><ellipse cx="970.571429" cy="644.674556" rx="2.857143" ry="2.852071"/><ellipse cx="422" cy="918.473373" rx="2.857143" ry="2.852071"/><ellipse cx="970.571429" cy="918.473373" rx="2.857143" ry="2.852071"/><ellipse cx="147.714286" cy="644.674556" rx="2.857143" ry="2.852071"/><ellipse cx="696.285714" cy="644.674556" rx="2.857143" ry="2.852071"/><ellipse cx="147.714286" cy="918.473373" rx="2.857143" ry="2.852071"/><ellipse cx="696.285714" cy="918.473373" rx="2.857143" ry="2.852071"/><ellipse cx="284.857143" cy="576.224852" rx="2.857143" ry="2.852071"/><ellipse cx="833.428571" cy="576.224852" rx="2.857143" ry="2.852071"/><ellipse cx="284.857143" cy="850.023669" rx="2.857143" ry="2.852071"/><ellipse cx="833.428571" cy="850.023669" rx="2.857143" ry="2.852071"/><ellipse cx="559.142857" cy="576.224852" rx="2.857143" ry="2.852071"/><ellipse cx="559.142857" cy="850.023669" rx="2.857143" ry="2.852071"/><ellipse cx="284.857143" cy="713.12426" rx="2.857143" ry="2.852071"/><ellipse cx="833.428571" cy="713.12426" rx="2.857143" ry="2.852071"/><ellipse cx="284.857143" cy="986.923077" rx="2.857143" ry="2.852071"/><ellipse cx="833.428571" cy="986.923077" rx="2.857143" ry="2.852071"/><ellipse cx="559.142857" cy="713.12426" rx="2.857143" ry="2.852071"/><ellipse cx="559.142857" cy="986.923077" rx="2.857143" ry="2.852071"/><ellipse cx="422" cy="576.224852" rx="2.857143" ry="2.852071"/><ellipse cx="970.571429" cy="576.224852" rx="2.857143" ry="2.852071"/><ellipse cx="422" cy="850.023669" rx="2.857143" ry="2.852071"/><ellipse cx="970.571429" cy="850.023669" rx="2.857143" ry="2.852071"/><ellipse cx="147.714286" cy="576.224852" rx="2.857143" ry="2.852071"/><ellipse cx="696.285714" cy="576.224852" rx="2.857143" ry="2.852071"/><ellipse cx="147.714286" cy="850.023669" rx="2.857143" ry="2.852071"/><ellipse cx="696.285714" cy="850.023669" rx="2.857143" ry="2.852071"/><ellipse cx="422" cy="713.12426" rx="2.857143" ry="2.852071"/><ellipse cx="970.571429" cy="713.12426" rx="2.857143" ry="2.852071"/><ellipse cx="422" cy="986.923077" rx="2.857143" ry="2.852071"/><ellipse cx="970.571429" cy="986.923077" rx="2.857143" ry="2.852071"/><ellipse cx="147.714286" cy="713.12426" rx="2.857143" ry="2.852071"/><ellipse cx="696.285714" cy="713.12426" rx="2.857143" ry="2.852071"/><ellipse cx="147.714286" cy="986.923077" rx="2.857143" ry="2.852071"/><ellipse cx="696.285714" cy="986.923077" rx="2.857143" ry="2.852071"/><ellipse cx="353.428571" cy="507.775148" rx="2.857143" ry="2.852071"/><ellipse cx="902" cy="507.775148" rx="2.857143" ry="2.852071"/><ellipse cx="353.428571" cy="781.573964" rx="2.857143" ry="2.852071"/><ellipse cx="902" cy="781.573964" rx="2.857143" ry="2.852071"/><ellipse cx="627.714286" cy="507.775148" rx="2.857143" ry="2.852071"/><ellipse cx="627.714286" cy="781.573964" rx="2.857143" ry="2.852071"/><ellipse cx="353.428571" cy="644.674556" rx="2.857143" ry="2.852071"/><ellipse cx="902" cy="644.674556" rx="2.857143" ry="2.852071"/><ellipse cx="353.428571" cy="918.473373" rx="2.857143" ry="2.852071"/><ellipse cx="902" cy="918.473373" rx="2.857143" ry="2.852071"/><ellipse cx="627.714286" cy="644.674556" rx="2.857143" ry="2.852071"/><ellipse cx="627.714286" cy="918.473373" rx="2.857143" ry="2.852071"/><ellipse cx="490.571429" cy="507.775148" rx="2.857143" ry="2.852071"/><ellipse cx="490.571429" cy="781.573964" rx="2.857143" ry="2.852071"/><ellipse cx="216.285714" cy="507.775148" rx="2.857143" ry="2.852071"/><ellipse cx="764.857143" cy="507.775148" rx="2.857143" ry="2.852071"/><ellipse cx="216.285714" cy="781.573964" rx="2.857143" ry="2.852071"/><ellipse cx="764.857143" cy="781.573964" rx="2.857143" ry="2.852071"/><ellipse cx="490.571429" cy="644.674556" rx="2.857143" ry="2.852071"/><ellipse cx="490.571429" cy="918.473373" rx="2.857143" ry="2.852071"/><ellipse cx="216.285714" cy="644.674556" rx="2.857143" ry="2.852071"/><ellipse cx="764.857143" cy="644.674556" rx="2.857143" ry="2.852071"/><ellipse cx="216.285714" cy="918.473373" rx="2.857143" ry="2.852071"/><ellipse cx="764.857143" cy="918.473373" rx="2.857143" ry="2.852071"/><ellipse cx="353.428571" cy="576.224852" rx="2.857143" ry="2.852071"/><ellipse cx="902" cy="576.224852" rx="2.857143" ry="2.852071"/><ellipse cx="353.428571" cy="850.023669" rx="2.857143" ry="2.852071"/><ellipse cx="902" cy="850.023669" rx="2.857143" ry="2.852071"/><ellipse cx="627.714286" cy="576.224852" rx="2.857143" ry="2.852071"/><ellipse cx="627.714286" cy="850.023669" rx="2.857143" ry="2.852071"/><ellipse cx="353.428571" cy="713.12426" rx="2.857143" ry="2.852071"/><ellipse cx="902" cy="713.12426" rx="2.857143" ry="2.852071"/><ellipse cx="353.428571" cy="986.923077" rx="2.857143" ry="2.852071"/><ellipse cx="902" cy="986.923077" rx="2.857143" ry="2.852071"/><ellipse cx="627.714286" cy="713.12426" rx="2.857143" ry="2.852071"/><ellipse cx="627.714286" cy="986.923077" rx="2.857143" ry="2.852071"/><ellipse cx="490.571429" cy="576.224852" rx="2.857143" ry="2.852071"/><ellipse cx="490.571429" cy="850.023669" rx="2.857143" ry="2.852071"/><ellipse cx="216.285714" cy="576.224852" rx="2.857143" ry="2.852071"/><ellipse cx="764.857143" cy="576.224852" rx="2.857143" ry="2.852071"/><ellipse cx="216.285714" cy="850.023669" rx="2.857143" ry="2.852071"/><ellipse cx="764.857143" cy="850.023669" rx="2.857143" ry="2.852071"/><ellipse cx="490.571429" cy="713.12426" rx="2.857143" ry="2.852071"/><ellipse cx="490.571429" cy="986.923077" rx="2.857143" ry="2.852071"/><ellipse cx="216.285714" cy="713.12426" rx="2.857143" ry="2.852071"/><ellipse cx="764.857143" cy="713.12426" rx="2.857143" ry="2.852071"/><ellipse cx="216.285714" cy="986.923077" rx="2.857143" ry="2.852071"/><ellipse cx="764.857143" cy="986.923077" rx="2.857143" ry="2.852071"/><ellipse cx="284.857143" cy="542" rx="2.857143" ry="2.852071"/><ellipse cx="833.428571" cy="542" rx="2.857143" ry="2.852071"/><ellipse cx="284.857143" cy="815.798817" rx="2.857143" ry="2.852071"/><ellipse cx="833.428571" cy="815.798817" rx="2.857143" ry="2.852071"/><ellipse cx="559.142857" cy="542" rx="2.857143" ry="2.852071"/><ellipse cx="559.142857" cy="815.798817" rx="2.857143" ry="2.852071"/><ellipse cx="284.857143" cy="678.899408" rx="2.857143" ry="2.852071"/><ellipse cx="833.428571" cy="678.899408" rx="2.857143" ry="2.852071"/><ellipse cx="284.857143" cy="952.698225" rx="2.857143" ry="2.852071"/><ellipse cx="833.428571" cy="952.698225" rx="2.857143" ry="2.852071"/><ellipse cx="559.142857" cy="678.899408" rx="2.857143" ry="2.852071"/><ellipse cx="559.142857" cy="952.698225" rx="2.857143" ry="2.852071"/><ellipse cx="422" cy="542" rx="2.857143" ry="2.852071"/><ellipse cx="970.571429" cy="542" rx="2.857143" ry="2.852071"/><ellipse cx="422" cy="815.798817" rx="2.857143" ry="2.852071"/><ellipse cx="970.571429" cy="815.798817" rx="2.857143" ry="2.852071"/><ellipse cx="147.714286" cy="542" rx="2.857143" ry="2.852071"/><ellipse cx="696.285714" cy="542" rx="2.857143" ry="2.852071"/><ellipse cx="147.714286" cy="815.798817" rx="2.857143" ry="2.852071"/><ellipse cx="696.285714" cy="815.798817" rx="2.857143" ry="2.852071"/><ellipse cx="422" cy="678.899408" rx="2.857143" ry="2.852071"/><ellipse cx="970.571429" cy="678.899408" rx="2.857143" ry="2.852071"/><ellipse cx="422" cy="952.698225" rx="2.857143" ry="2.852071"/><ellipse cx="970.571429" cy="952.698225" rx="2.857143" ry="2.852071"/><ellipse cx="147.714286" cy="678.899408" rx="2.857143" ry="2.852071"/><ellipse cx="696.285714" cy="678.899408" rx="2.857143" ry="2.852071"/><ellipse cx="147.714286" cy="952.698225" rx="2.857143" ry="2.852071"/><ellipse cx="696.285714" cy="952.698225" rx="2.857143" ry="2.852071"/><ellipse cx="284.857143" cy="610.449704" rx="2.857143" ry="2.852071"/><ellipse cx="833.428571" cy="610.449704" rx="2.857143" ry="2.852071"/><ellipse cx="284.857143" cy="884.248521" rx="2.857143" ry="2.852071"/><ellipse cx="833.428571" cy="884.248521" rx="2.857143" ry="2.852071"/><ellipse cx="559.142857" cy="610.449704" rx="2.857143" ry="2.852071"/><ellipse cx="559.142857" cy="884.248521" rx="2.857143" ry="2.852071"/><ellipse cx="284.857143" cy="747.349112" rx="2.857143" ry="2.852071"/><ellipse cx="833.428571" cy="747.349112" rx="2.857143" ry="2.852071"/><ellipse cx="284.857143" cy="1021.147929" rx="2.857143" ry="2.852071"/><ellipse cx="833.428571" cy="1021.147929" rx="2.857143" ry="2.852071"/><ellipse cx="559.142857" cy="747.349112" rx="2.857143" ry="2.852071"/><ellipse cx="559.142857" cy="1021.147929" rx="2.857143" ry="2.852071"/><ellipse cx="422" cy="610.449704" rx="2.857143" ry="2.852071"/><ellipse cx="970.571429" cy="610.449704" rx="2.857143" ry="2.852071"/><ellipse cx="422" cy="884.248521" rx="2.857143" ry="2.852071"/><ellipse cx="970.571429" cy="884.248521" rx="2.857143" ry="2.852071"/><ellipse cx="147.714286" cy="610.449704" rx="2.857143" ry="2.852071"/><ellipse cx="696.285714" cy="610.449704" rx="2.857143" ry="2.852071"/><ellipse cx="147.714286" cy="884.248521" rx="2.857143" ry="2.852071"/><ellipse cx="696.285714" cy="884.248521" rx="2.857143" ry="2.852071"/><ellipse cx="422" cy="747.349112" rx="2.857143" ry="2.852071"/><ellipse cx="970.571429" cy="747.349112" rx="2.857143" ry="2.852071"/><ellipse cx="422" cy="1021.147929" rx="2.857143" ry="2.852071"/><ellipse cx="970.571429" cy="1021.147929" rx="2.857143" ry="2.852071"/><ellipse cx="147.714286" cy="747.349112" rx="2.857143" ry="2.852071"/><ellipse cx="696.285714" cy="747.349112" rx="2.857143" ry="2.852071"/><ellipse cx="147.714286" cy="1021.147929" rx="2.857143" ry="2.852071"/><ellipse cx="696.285714" cy="1021.147929" rx="2.857143" ry="2.852071"/><ellipse cx="353.428571" cy="542" rx="2.857143" ry="2.852071"/><ellipse cx="902" cy="542" rx="2.857143" ry="2.852071"/><ellipse cx="353.428571" cy="815.798817" rx="2.857143" ry="2.852071"/><ellipse cx="902" cy="815.798817" rx="2.857143" ry="2.852071"/><ellipse cx="627.714286" cy="542" rx="2.857143" ry="2.852071"/><ellipse cx="627.714286" cy="815.798817" rx="2.857143" ry="2.852071"/><ellipse cx="353.428571" cy="678.899408" rx="2.857143" ry="2.852071"/><ellipse cx="902" cy="678.899408" rx="2.857143" ry="2.852071"/><ellipse cx="353.428571" cy="952.698225" rx="2.857143" ry="2.852071"/><ellipse cx="902" cy="952.698225" rx="2.857143" ry="2.852071"/><ellipse cx="627.714286" cy="678.899408" rx="2.857143" ry="2.852071"/><ellipse cx="627.714286" cy="952.698225" rx="2.857143" ry="2.852071"/><ellipse cx="490.571429" cy="542" rx="2.857143" ry="2.852071"/><ellipse cx="490.571429" cy="815.798817" rx="2.857143" ry="2.852071"/><ellipse cx="216.285714" cy="542" rx="2.857143" ry="2.852071"/><ellipse cx="764.857143" cy="542" rx="2.857143" ry="2.852071"/><ellipse cx="216.285714" cy="815.798817" rx="2.857143" ry="2.852071"/><ellipse cx="764.857143" cy="815.798817" rx="2.857143" ry="2.852071"/><ellipse cx="490.571429" cy="678.899408" rx="2.857143" ry="2.852071"/><ellipse cx="490.571429" cy="952.698225" rx="2.857143" ry="2.852071"/><ellipse cx="216.285714" cy="678.899408" rx="2.857143" ry="2.852071"/><ellipse cx="764.857143" cy="678.899408" rx="2.857143" ry="2.852071"/><ellipse cx="216.285714" cy="952.698225" rx="2.857143" ry="2.852071"/><ellipse cx="764.857143" cy="952.698225" rx="2.857143" ry="2.852071"/><ellipse cx="353.428571" cy="610.449704" rx="2.857143" ry="2.852071"/><ellipse cx="902" cy="610.449704" rx="2.857143" ry="2.852071"/><ellipse cx="353.428571" cy="884.248521" rx="2.857143" ry="2.852071"/><ellipse cx="902" cy="884.248521" rx="2.857143" ry="2.852071"/><ellipse cx="627.714286" cy="610.449704" rx="2.857143" ry="2.852071"/><ellipse cx="627.714286" cy="884.248521" rx="2.857143" ry="2.852071"/><ellipse cx="353.428571" cy="747.349112" rx="2.857143" ry="2.852071"/><ellipse cx="902" cy="747.349112" rx="2.857143" ry="2.852071"/><ellipse cx="353.428571" cy="1021.147929" rx="2.857143" ry="2.852071"/><ellipse cx="902" cy="1021.147929" rx="2.857143" ry="2.852071"/><ellipse cx="627.714286" cy="747.349112" rx="2.857143" ry="2.852071"/><ellipse cx="627.714286" cy="1021.147929" rx="2.857143" ry="2.852071"/><ellipse cx="490.571429" cy="610.449704" rx="2.857143" ry="2.852071"/><ellipse cx="490.571429" cy="884.248521" rx="2.857143" ry="2.852071"/><ellipse cx="216.285714" cy="610.449704" rx="2.857143" ry="2.852071"/><ellipse cx="764.857143" cy="610.449704" rx="2.857143" ry="2.852071"/><ellipse cx="216.285714" cy="884.248521" rx="2.857143" ry="2.852071"/><ellipse cx="764.857143" cy="884.248521" rx="2.857143" ry="2.852071"/><ellipse cx="490.571429" cy="747.349112" rx="2.857143" ry="2.852071"/><ellipse cx="490.571429" cy="1021.147929" rx="2.857143" ry="2.852071"/><ellipse cx="216.285714" cy="747.349112" rx="2.857143" ry="2.852071"/><ellipse cx="764.857143" cy="747.349112" rx="2.857143" ry="2.852071"/><ellipse cx="216.285714" cy="1021.147929" rx="2.857143" ry="2.852071"/><ellipse cx="764.857143" cy="1021.147929" rx="2.857143" ry="2.852071"/><ellipse cx="250.571429" cy="233.976331" rx="2.857143" ry="2.852071"/><ellipse cx="799.142857" cy="233.976331" rx="2.857143" ry="2.852071"/><ellipse cx="524.857143" cy="233.976331" rx="2.857143" ry="2.852071"/><ellipse cx="250.571429" cy="97.076923" rx="2.857143" ry="2.852071"/><ellipse cx="799.142857" cy="97.076923" rx="2.857143" ry="2.852071"/><ellipse cx="250.571429" cy="370.87574" rx="2.857143" ry="2.852071"/><ellipse cx="799.142857" cy="370.87574" rx="2.857143" ry="2.852071"/><ellipse cx="524.857143" cy="97.076923" rx="2.857143" ry="2.852071"/><ellipse cx="524.857143" cy="370.87574" rx="2.857143" ry="2.852071"/><ellipse cx="387.714286" cy="233.976331" rx="2.857143" ry="2.852071"/><ellipse cx="936.285714" cy="233.976331" rx="2.857143" ry="2.852071"/><ellipse cx="113.428571" cy="233.976331" rx="2.857143" ry="2.852071"/><ellipse cx="662" cy="233.976331" rx="2.857143" ry="2.852071"/><ellipse cx="387.714286" cy="97.076923" rx="2.857143" ry="2.852071"/><ellipse cx="936.285714" cy="97.076923" rx="2.857143" ry="2.852071"/><ellipse cx="387.714286" cy="370.87574" rx="2.857143" ry="2.852071"/><ellipse cx="936.285714" cy="370.87574" rx="2.857143" ry="2.852071"/><ellipse cx="113.428571" cy="97.076923" rx="2.857143" ry="2.852071"/><ellipse cx="662" cy="97.076923" rx="2.857143" ry="2.852071"/><ellipse cx="113.428571" cy="370.87574" rx="2.857143" ry="2.852071"/><ellipse cx="662" cy="370.87574" rx="2.857143" ry="2.852071"/><ellipse cx="250.571429" cy="302.426036" rx="2.857143" ry="2.852071"/><ellipse cx="799.142857" cy="302.426036" rx="2.857143" ry="2.852071"/><ellipse cx="524.857143" cy="302.426036" rx="2.857143" ry="2.852071"/><ellipse cx="250.571429" cy="165.526627" rx="2.857143" ry="2.852071"/><ellipse cx="799.142857" cy="165.526627" rx="2.857143" ry="2.852071"/><ellipse cx="250.571429" cy="439.325444" rx="2.857143" ry="2.852071"/><ellipse cx="799.142857" cy="439.325444" rx="2.857143" ry="2.852071"/><ellipse cx="524.857143" cy="165.526627" rx="2.857143" ry="2.852071"/><ellipse cx="524.857143" cy="439.325444" rx="2.857143" ry="2.852071"/><ellipse cx="387.714286" cy="302.426036" rx="2.857143" ry="2.852071"/><ellipse cx="936.285714" cy="302.426036" rx="2.857143" ry="2.852071"/><ellipse cx="113.428571" cy="302.426036" rx="2.857143" ry="2.852071"/><ellipse cx="662" cy="302.426036" rx="2.857143" ry="2.852071"/><ellipse cx="387.714286" cy="165.526627" rx="2.857143" ry="2.852071"/><ellipse cx="936.285714" cy="165.526627" rx="2.857143" ry="2.852071"/><ellipse cx="387.714286" cy="439.325444" rx="2.857143" ry="2.852071"/><ellipse cx="936.285714" cy="439.325444" rx="2.857143" ry="2.852071"/><ellipse cx="113.428571" cy="165.526627" rx="2.857143" ry="2.852071"/><ellipse cx="662" cy="165.526627" rx="2.857143" ry="2.852071"/><ellipse cx="113.428571" cy="439.325444" rx="2.857143" ry="2.852071"/><ellipse cx="662" cy="439.325444" rx="2.857143" ry="2.852071"/><ellipse cx="319.142857" cy="233.976331" rx="2.857143" ry="2.852071"/><ellipse cx="867.714286" cy="233.976331" rx="2.857143" ry="2.852071"/><ellipse cx="593.428571" cy="233.976331" rx="2.857143" ry="2.852071"/><ellipse cx="319.142857" cy="97.076923" rx="2.857143" ry="2.852071"/><ellipse cx="867.714286" cy="97.076923" rx="2.857143" ry="2.852071"/><ellipse cx="319.142857" cy="370.87574" rx="2.857143" ry="2.852071"/><ellipse cx="867.714286" cy="370.87574" rx="2.857143" ry="2.852071"/><ellipse cx="593.428571" cy="97.076923" rx="2.857143" ry="2.852071"/><ellipse cx="593.428571" cy="370.87574" rx="2.857143" ry="2.852071"/><ellipse cx="456.285714" cy="233.976331" rx="2.857143" ry="2.852071"/><ellipse cx="182" cy="233.976331" rx="2.857143" ry="2.852071"/><ellipse cx="730.571429" cy="233.976331" rx="2.857143" ry="2.852071"/><ellipse cx="456.285714" cy="97.076923" rx="2.857143" ry="2.852071"/><ellipse cx="456.285714" cy="370.87574" rx="2.857143" ry="2.852071"/><ellipse cx="182" cy="97.076923" rx="2.857143" ry="2.852071"/><ellipse cx="730.571429" cy="97.076923" rx="2.857143" ry="2.852071"/><ellipse cx="182" cy="370.87574" rx="2.857143" ry="2.852071"/><ellipse cx="730.571429" cy="370.87574" rx="2.857143" ry="2.852071"/><ellipse cx="319.142857" cy="302.426036" rx="2.857143" ry="2.852071"/><ellipse cx="867.714286" cy="302.426036" rx="2.857143" ry="2.852071"/><ellipse cx="593.428571" cy="302.426036" rx="2.857143" ry="2.852071"/><ellipse cx="319.142857" cy="165.526627" rx="2.857143" ry="2.852071"/><ellipse cx="867.714286" cy="165.526627" rx="2.857143" ry="2.852071"/><ellipse cx="319.142857" cy="439.325444" rx="2.857143" ry="2.852071"/><ellipse cx="867.714286" cy="439.325444" rx="2.857143" ry="2.852071"/><ellipse cx="593.428571" cy="165.526627" rx="2.857143" ry="2.852071"/><ellipse cx="593.428571" cy="439.325444" rx="2.857143" ry="2.852071"/><ellipse cx="456.285714" cy="302.426036" rx="2.857143" ry="2.852071"/><ellipse cx="182" cy="302.426036" rx="2.857143" ry="2.852071"/><ellipse cx="730.571429" cy="302.426036" rx="2.857143" ry="2.852071"/><ellipse cx="456.285714" cy="165.526627" rx="2.857143" ry="2.852071"/><ellipse cx="456.285714" cy="439.325444" rx="2.857143" ry="2.852071"/><ellipse cx="182" cy="165.526627" rx="2.857143" ry="2.852071"/><ellipse cx="730.571429" cy="165.526627" rx="2.857143" ry="2.852071"/><ellipse cx="182" cy="439.325444" rx="2.857143" ry="2.852071"/><ellipse cx="730.571429" cy="439.325444" rx="2.857143" ry="2.852071"/><ellipse cx="250.571429" cy="268.201183" rx="2.857143" ry="2.852071"/><ellipse cx="799.142857" cy="268.201183" rx="2.857143" ry="2.852071"/><ellipse cx="524.857143" cy="268.201183" rx="2.857143" ry="2.852071"/><ellipse cx="250.571429" cy="131.301775" rx="2.857143" ry="2.852071"/><ellipse cx="799.142857" cy="131.301775" rx="2.857143" ry="2.852071"/><ellipse cx="250.571429" cy="405.100592" rx="2.857143" ry="2.852071"/><ellipse cx="799.142857" cy="405.100592" rx="2.857143" ry="2.852071"/><ellipse cx="524.857143" cy="131.301775" rx="2.857143" ry="2.852071"/><ellipse cx="524.857143" cy="405.100592" rx="2.857143" ry="2.852071"/><ellipse cx="387.714286" cy="268.201183" rx="2.857143" ry="2.852071"/><ellipse cx="936.285714" cy="268.201183" rx="2.857143" ry="2.852071"/><ellipse cx="113.428571" cy="268.201183" rx="2.857143" ry="2.852071"/><ellipse cx="662" cy="268.201183" rx="2.857143" ry="2.852071"/><ellipse cx="387.714286" cy="131.301775" rx="2.857143" ry="2.852071"/><ellipse cx="936.285714" cy="131.301775" rx="2.857143" ry="2.852071"/><ellipse cx="387.714286" cy="405.100592" rx="2.857143" ry="2.852071"/><ellipse cx="936.285714" cy="405.100592" rx="2.857143" ry="2.852071"/><ellipse cx="113.428571" cy="131.301775" rx="2.857143" ry="2.852071"/><ellipse cx="662" cy="131.301775" rx="2.857143" ry="2.852071"/><ellipse cx="113.428571" cy="405.100592" rx="2.857143" ry="2.852071"/><ellipse cx="662" cy="405.100592" rx="2.857143" ry="2.852071"/><ellipse cx="250.571429" cy="62.852071" rx="2.857143" ry="2.852071"/><ellipse cx="799.142857" cy="62.852071" rx="2.857143" ry="2.852071"/><ellipse cx="250.571429" cy="336.650888" rx="2.857143" ry="2.852071"/><ellipse cx="799.142857" cy="336.650888" rx="2.857143" ry="2.852071"/><ellipse cx="524.857143" cy="62.852071" rx="2.857143" ry="2.852071"/><ellipse cx="524.857143" cy="336.650888" rx="2.857143" ry="2.852071"/><ellipse cx="250.571429" cy="199.751479" rx="2.857143" ry="2.852071"/><ellipse cx="799.142857" cy="199.751479" rx="2.857143" ry="2.852071"/><ellipse cx="250.571429" cy="473.550296" rx="2.857143" ry="2.852071"/><ellipse cx="799.142857" cy="473.550296" rx="2.857143" ry="2.852071"/><ellipse cx="524.857143" cy="199.751479" rx="2.857143" ry="2.852071"/><ellipse cx="524.857143" cy="473.550296" rx="2.857143" ry="2.852071"/><ellipse cx="387.714286" cy="62.852071" rx="2.857143" ry="2.852071"/><ellipse cx="936.285714" cy="62.852071" rx="2.857143" ry="2.852071"/><ellipse cx="387.714286" cy="336.650888" rx="2.857143" ry="2.852071"/><ellipse cx="936.285714" cy="336.650888" rx="2.857143" ry="2.852071"/><ellipse cx="113.428571" cy="62.852071" rx="2.857143" ry="2.852071"/><ellipse cx="662" cy="62.852071" rx="2.857143" ry="2.852071"/><ellipse cx="113.428571" cy="336.650888" rx="2.857143" ry="2.852071"/><ellipse cx="662" cy="336.650888" rx="2.857143" ry="2.852071"/><ellipse cx="387.714286" cy="199.751479" rx="2.857143" ry="2.852071"/><ellipse cx="936.285714" cy="199.751479" rx="2.857143" ry="2.852071"/><ellipse cx="387.714286" cy="473.550296" rx="2.857143" ry="2.852071"/><ellipse cx="936.285714" cy="473.550296" rx="2.857143" ry="2.852071"/><ellipse cx="113.428571" cy="199.751479" rx="2.857143" ry="2.852071"/><ellipse cx="662" cy="199.751479" rx="2.857143" ry="2.852071"/><ellipse cx="113.428571" cy="473.550296" rx="2.857143" ry="2.852071"/><ellipse cx="662" cy="473.550296" rx="2.857143" ry="2.852071"/><ellipse cx="319.142857" cy="268.201183" rx="2.857143" ry="2.852071"/><ellipse cx="867.714286" cy="268.201183" rx="2.857143" ry="2.852071"/><ellipse cx="593.428571" cy="268.201183" rx="2.857143" ry="2.852071"/><ellipse cx="319.142857" cy="131.301775" rx="2.857143" ry="2.852071"/><ellipse cx="867.714286" cy="131.301775" rx="2.857143" ry="2.852071"/><ellipse cx="319.142857" cy="405.100592" rx="2.857143" ry="2.852071"/><ellipse cx="867.714286" cy="405.100592" rx="2.857143" ry="2.852071"/><ellipse cx="593.428571" cy="131.301775" rx="2.857143" ry="2.852071"/><ellipse cx="593.428571" cy="405.100592" rx="2.857143" ry="2.852071"/><ellipse cx="456.285714" cy="268.201183" rx="2.857143" ry="2.852071"/><ellipse cx="182" cy="268.201183" rx="2.857143" ry="2.852071"/><ellipse cx="730.571429" cy="268.201183" rx="2.857143" ry="2.852071"/><ellipse cx="456.285714" cy="131.301775" rx="2.857143" ry="2.852071"/><ellipse cx="456.285714" cy="405.100592" rx="2.857143" ry="2.852071"/><ellipse cx="182" cy="131.301775" rx="2.857143" ry="2.852071"/><ellipse cx="730.571429" cy="131.301775" rx="2.857143" ry="2.852071"/><ellipse cx="182" cy="405.100592" rx="2.857143" ry="2.852071"/><ellipse cx="730.571429" cy="405.100592" rx="2.857143" ry="2.852071"/><ellipse cx="319.142857" cy="62.852071" rx="2.857143" ry="2.852071"/><ellipse cx="867.714286" cy="62.852071" rx="2.857143" ry="2.852071"/><ellipse cx="319.142857" cy="336.650888" rx="2.857143" ry="2.852071"/><ellipse cx="867.714286" cy="336.650888" rx="2.857143" ry="2.852071"/><ellipse cx="593.428571" cy="62.852071" rx="2.857143" ry="2.852071"/><ellipse cx="593.428571" cy="336.650888" rx="2.857143" ry="2.852071"/><ellipse cx="319.142857" cy="199.751479" rx="2.857143" ry="2.852071"/><ellipse cx="867.714286" cy="199.751479" rx="2.857143" ry="2.852071"/><ellipse cx="319.142857" cy="473.550296" rx="2.857143" ry="2.852071"/><ellipse cx="867.714286" cy="473.550296" rx="2.857143" ry="2.852071"/><ellipse cx="593.428571" cy="199.751479" rx="2.857143" ry="2.852071"/><ellipse cx="593.428571" cy="473.550296" rx="2.857143" ry="2.852071"/><ellipse cx="456.285714" cy="62.852071" rx="2.857143" ry="2.852071"/><ellipse cx="456.285714" cy="336.650888" rx="2.857143" ry="2.852071"/><ellipse cx="182" cy="62.852071" rx="2.857143" ry="2.852071"/><ellipse cx="730.571429" cy="62.852071" rx="2.857143" ry="2.852071"/><ellipse cx="182" cy="336.650888" rx="2.857143" ry="2.852071"/><ellipse cx="730.571429" cy="336.650888" rx="2.857143" ry="2.852071"/><ellipse cx="456.285714" cy="199.751479" rx="2.857143" ry="2.852071"/><ellipse cx="456.285714" cy="473.550296" rx="2.857143" ry="2.852071"/><ellipse cx="182" cy="199.751479" rx="2.857143" ry="2.852071"/><ellipse cx="730.571429" cy="199.751479" rx="2.857143" ry="2.852071"/><ellipse cx="182" cy="473.550296" rx="2.857143" ry="2.852071"/><ellipse cx="730.571429" cy="473.550296" rx="2.857143" ry="2.852071"/><ellipse cx="284.857143" cy="233.976331" rx="2.857143" ry="2.852071"/><ellipse cx="833.428571" cy="233.976331" rx="2.857143" ry="2.852071"/><ellipse cx="559.142857" cy="233.976331" rx="2.857143" ry="2.852071"/><ellipse cx="284.857143" cy="97.076923" rx="2.857143" ry="2.852071"/><ellipse cx="833.428571" cy="97.076923" rx="2.857143" ry="2.852071"/><ellipse cx="284.857143" cy="370.87574" rx="2.857143" ry="2.852071"/><ellipse cx="833.428571" cy="370.87574" rx="2.857143" ry="2.852071"/><ellipse cx="559.142857" cy="97.076923" rx="2.857143" ry="2.852071"/><ellipse cx="559.142857" cy="370.87574" rx="2.857143" ry="2.852071"/><ellipse cx="422" cy="233.976331" rx="2.857143" ry="2.852071"/><ellipse cx="970.571429" cy="233.976331" rx="2.857143" ry="2.852071"/><ellipse cx="147.714286" cy="233.976331" rx="2.857143" ry="2.852071"/><ellipse cx="696.285714" cy="233.976331" rx="2.857143" ry="2.852071"/><ellipse cx="422" cy="97.076923" rx="2.857143" ry="2.852071"/><ellipse cx="970.571429" cy="97.076923" rx="2.857143" ry="2.852071"/><ellipse cx="422" cy="370.87574" rx="2.857143" ry="2.852071"/><ellipse cx="970.571429" cy="370.87574" rx="2.857143" ry="2.852071"/><ellipse cx="147.714286" cy="97.076923" rx="2.857143" ry="2.852071"/><ellipse cx="696.285714" cy="97.076923" rx="2.857143" ry="2.852071"/><ellipse cx="147.714286" cy="370.87574" rx="2.857143" ry="2.852071"/><ellipse cx="696.285714" cy="370.87574" rx="2.857143" ry="2.852071"/><ellipse cx="284.857143" cy="302.426036" rx="2.857143" ry="2.852071"/><ellipse cx="833.428571" cy="302.426036" rx="2.857143" ry="2.852071"/><ellipse cx="559.142857" cy="302.426036" rx="2.857143" ry="2.852071"/><ellipse cx="284.857143" cy="165.526627" rx="2.857143" ry="2.852071"/><ellipse cx="833.428571" cy="165.526627" rx="2.857143" ry="2.852071"/><ellipse cx="284.857143" cy="439.325444" rx="2.857143" ry="2.852071"/><ellipse cx="833.428571" cy="439.325444" rx="2.857143" ry="2.852071"/><ellipse cx="559.142857" cy="165.526627" rx="2.857143" ry="2.852071"/><ellipse cx="559.142857" cy="439.325444" rx="2.857143" ry="2.852071"/><ellipse cx="422" cy="302.426036" rx="2.857143" ry="2.852071"/><ellipse cx="970.571429" cy="302.426036" rx="2.857143" ry="2.852071"/><ellipse cx="147.714286" cy="302.426036" rx="2.857143" ry="2.852071"/><ellipse cx="696.285714" cy="302.426036" rx="2.857143" ry="2.852071"/><ellipse cx="422" cy="165.526627" rx="2.857143" ry="2.852071"/><ellipse cx="970.571429" cy="165.526627" rx="2.857143" ry="2.852071"/><ellipse cx="422" cy="439.325444" rx="2.857143" ry="2.852071"/><ellipse cx="970.571429" cy="439.325444" rx="2.857143" ry="2.852071"/><ellipse cx="147.714286" cy="165.526627" rx="2.857143" ry="2.852071"/><ellipse cx="696.285714" cy="165.526627" rx="2.857143" ry="2.852071"/><ellipse cx="147.714286" cy="439.325444" rx="2.857143" ry="2.852071"/><ellipse cx="696.285714" cy="439.325444" rx="2.857143" ry="2.852071"/><ellipse cx="353.428571" cy="233.976331" rx="2.857143" ry="2.852071"/><ellipse cx="902" cy="233.976331" rx="2.857143" ry="2.852071"/><ellipse cx="627.714286" cy="233.976331" rx="2.857143" ry="2.852071"/><ellipse cx="353.428571" cy="97.076923" rx="2.857143" ry="2.852071"/><ellipse cx="902" cy="97.076923" rx="2.857143" ry="2.852071"/><ellipse cx="353.428571" cy="370.87574" rx="2.857143" ry="2.852071"/><ellipse cx="902" cy="370.87574" rx="2.857143" ry="2.852071"/><ellipse cx="627.714286" cy="97.076923" rx="2.857143" ry="2.852071"/><ellipse cx="627.714286" cy="370.87574" rx="2.857143" ry="2.852071"/><ellipse cx="490.571429" cy="233.976331" rx="2.857143" ry="2.852071"/><ellipse cx="216.285714" cy="233.976331" rx="2.857143" ry="2.852071"/><ellipse cx="764.857143" cy="233.976331" rx="2.857143" ry="2.852071"/><ellipse cx="490.571429" cy="97.076923" rx="2.857143" ry="2.852071"/><ellipse cx="490.571429" cy="370.87574" rx="2.857143" ry="2.852071"/><ellipse cx="216.285714" cy="97.076923" rx="2.857143" ry="2.852071"/><ellipse cx="764.857143" cy="97.076923" rx="2.857143" ry="2.852071"/><ellipse cx="216.285714" cy="370.87574" rx="2.857143" ry="2.852071"/><ellipse cx="764.857143" cy="370.87574" rx="2.857143" ry="2.852071"/><ellipse cx="353.428571" cy="302.426036" rx="2.857143" ry="2.852071"/><ellipse cx="902" cy="302.426036" rx="2.857143" ry="2.852071"/><ellipse cx="627.714286" cy="302.426036" rx="2.857143" ry="2.852071"/><ellipse cx="353.428571" cy="165.526627" rx="2.857143" ry="2.852071"/><ellipse cx="902" cy="165.526627" rx="2.857143" ry="2.852071"/><ellipse cx="353.428571" cy="439.325444" rx="2.857143" ry="2.852071"/><ellipse cx="902" cy="439.325444" rx="2.857143" ry="2.852071"/><ellipse cx="627.714286" cy="165.526627" rx="2.857143" ry="2.852071"/><ellipse cx="627.714286" cy="439.325444" rx="2.857143" ry="2.852071"/><ellipse cx="490.571429" cy="302.426036" rx="2.857143" ry="2.852071"/><ellipse cx="216.285714" cy="302.426036" rx="2.857143" ry="2.852071"/><ellipse cx="764.857143" cy="302.426036" rx="2.857143" ry="2.852071"/><ellipse cx="490.571429" cy="165.526627" rx="2.857143" ry="2.852071"/><ellipse cx="490.571429" cy="439.325444" rx="2.857143" ry="2.852071"/><ellipse cx="216.285714" cy="165.526627" rx="2.857143" ry="2.852071"/><ellipse cx="764.857143" cy="165.526627" rx="2.857143" ry="2.852071"/><ellipse cx="216.285714" cy="439.325444" rx="2.857143" ry="2.852071"/><ellipse cx="764.857143" cy="439.325444" rx="2.857143" ry="2.852071"/><ellipse cx="284.857143" cy="268.201183" rx="2.857143" ry="2.852071"/><ellipse cx="833.428571" cy="268.201183" rx="2.857143" ry="2.852071"/><ellipse cx="559.142857" cy="268.201183" rx="2.857143" ry="2.852071"/><ellipse cx="284.857143" cy="131.301775" rx="2.857143" ry="2.852071"/><ellipse cx="833.428571" cy="131.301775" rx="2.857143" ry="2.852071"/><ellipse cx="284.857143" cy="405.100592" rx="2.857143" ry="2.852071"/><ellipse cx="833.428571" cy="405.100592" rx="2.857143" ry="2.852071"/><ellipse cx="559.142857" cy="131.301775" rx="2.857143" ry="2.852071"/><ellipse cx="559.142857" cy="405.100592" rx="2.857143" ry="2.852071"/><ellipse cx="422" cy="268.201183" rx="2.857143" ry="2.852071"/><ellipse cx="970.571429" cy="268.201183" rx="2.857143" ry="2.852071"/><ellipse cx="147.714286" cy="268.201183" rx="2.857143" ry="2.852071"/><ellipse cx="696.285714" cy="268.201183" rx="2.857143" ry="2.852071"/><ellipse cx="422" cy="131.301775" rx="2.857143" ry="2.852071"/><ellipse cx="970.571429" cy="131.301775" rx="2.857143" ry="2.852071"/><ellipse cx="422" cy="405.100592" rx="2.857143" ry="2.852071"/><ellipse cx="970.571429" cy="405.100592" rx="2.857143" ry="2.852071"/><ellipse cx="147.714286" cy="131.301775" rx="2.857143" ry="2.852071"/><ellipse cx="696.285714" cy="131.301775" rx="2.857143" ry="2.852071"/><ellipse cx="147.714286" cy="405.100592" rx="2.857143" ry="2.852071"/><ellipse cx="696.285714" cy="405.100592" rx="2.857143" ry="2.852071"/><ellipse cx="284.857143" cy="62.852071" rx="2.857143" ry="2.852071"/><ellipse cx="833.428571" cy="62.852071" rx="2.857143" ry="2.852071"/><ellipse cx="284.857143" cy="336.650888" rx="2.857143" ry="2.852071"/><ellipse cx="833.428571" cy="336.650888" rx="2.857143" ry="2.852071"/><ellipse cx="559.142857" cy="62.852071" rx="2.857143" ry="2.852071"/><ellipse cx="559.142857" cy="336.650888" rx="2.857143" ry="2.852071"/><ellipse cx="284.857143" cy="199.751479" rx="2.857143" ry="2.852071"/><ellipse cx="833.428571" cy="199.751479" rx="2.857143" ry="2.852071"/><ellipse cx="284.857143" cy="473.550296" rx="2.857143" ry="2.852071"/><ellipse cx="833.428571" cy="473.550296" rx="2.857143" ry="2.852071"/><ellipse cx="559.142857" cy="199.751479" rx="2.857143" ry="2.852071"/><ellipse cx="559.142857" cy="473.550296" rx="2.857143" ry="2.852071"/><ellipse cx="422" cy="62.852071" rx="2.857143" ry="2.852071"/><ellipse cx="970.571429" cy="62.852071" rx="2.857143" ry="2.852071"/><ellipse cx="422" cy="336.650888" rx="2.857143" ry="2.852071"/><ellipse cx="970.571429" cy="336.650888" rx="2.857143" ry="2.852071"/><ellipse cx="147.714286" cy="62.852071" rx="2.857143" ry="2.852071"/><ellipse cx="696.285714" cy="62.852071" rx="2.857143" ry="2.852071"/><ellipse cx="147.714286" cy="336.650888" rx="2.857143" ry="2.852071"/><ellipse cx="696.285714" cy="336.650888" rx="2.857143" ry="2.852071"/><ellipse cx="422" cy="199.751479" rx="2.857143" ry="2.852071"/><ellipse cx="970.571429" cy="199.751479" rx="2.857143" ry="2.852071"/><ellipse cx="422" cy="473.550296" rx="2.857143" ry="2.852071"/><ellipse cx="970.571429" cy="473.550296" rx="2.857143" ry="2.852071"/><ellipse cx="147.714286" cy="199.751479" rx="2.857143" ry="2.852071"/><ellipse cx="696.285714" cy="199.751479" rx="2.857143" ry="2.852071"/><ellipse cx="147.714286" cy="473.550296" rx="2.857143" ry="2.852071"/><ellipse cx="696.285714" cy="473.550296" rx="2.857143" ry="2.852071"/><ellipse cx="353.428571" cy="268.201183" rx="2.857143" ry="2.852071"/><ellipse cx="902" cy="268.201183" rx="2.857143" ry="2.852071"/><ellipse cx="627.714286" cy="268.201183" rx="2.857143" ry="2.852071"/><ellipse cx="353.428571" cy="131.301775" rx="2.857143" ry="2.852071"/><ellipse cx="902" cy="131.301775" rx="2.857143" ry="2.852071"/><ellipse cx="353.428571" cy="405.100592" rx="2.857143" ry="2.852071"/><ellipse cx="902" cy="405.100592" rx="2.857143" ry="2.852071"/><ellipse cx="627.714286" cy="131.301775" rx="2.857143" ry="2.852071"/><ellipse cx="627.714286" cy="405.100592" rx="2.857143" ry="2.852071"/><ellipse cx="490.571429" cy="268.201183" rx="2.857143" ry="2.852071"/><ellipse cx="216.285714" cy="268.201183" rx="2.857143" ry="2.852071"/><ellipse cx="764.857143" cy="268.201183" rx="2.857143" ry="2.852071"/><ellipse cx="490.571429" cy="131.301775" rx="2.857143" ry="2.852071"/><ellipse cx="490.571429" cy="405.100592" rx="2.857143" ry="2.852071"/><ellipse cx="216.285714" cy="131.301775" rx="2.857143" ry="2.852071"/><ellipse cx="764.857143" cy="131.301775" rx="2.857143" ry="2.852071"/><ellipse cx="216.285714" cy="405.100592" rx="2.857143" ry="2.852071"/><ellipse cx="764.857143" cy="405.100592" rx="2.857143" ry="2.852071"/><ellipse cx="353.428571" cy="62.852071" rx="2.857143" ry="2.852071"/><ellipse cx="902" cy="62.852071" rx="2.857143" ry="2.852071"/><ellipse cx="353.428571" cy="336.650888" rx="2.857143" ry="2.852071"/><ellipse cx="902" cy="336.650888" rx="2.857143" ry="2.852071"/><ellipse cx="627.714286" cy="62.852071" rx="2.857143" ry="2.852071"/><ellipse cx="627.714286" cy="336.650888" rx="2.857143" ry="2.852071"/><ellipse cx="353.428571" cy="199.751479" rx="2.857143" ry="2.852071"/><ellipse cx="902" cy="199.751479" rx="2.857143" ry="2.852071"/><ellipse cx="353.428571" cy="473.550296" rx="2.857143" ry="2.852071"/><ellipse cx="902" cy="473.550296" rx="2.857143" ry="2.852071"/><ellipse cx="627.714286" cy="199.751479" rx="2.857143" ry="2.852071"/><ellipse cx="627.714286" cy="473.550296" rx="2.857143" ry="2.852071"/><ellipse cx="490.571429" cy="62.852071" rx="2.857143" ry="2.852071"/><ellipse cx="490.571429" cy="336.650888" rx="2.857143" ry="2.852071"/><ellipse cx="216.285714" cy="62.852071" rx="2.857143" ry="2.852071"/><ellipse cx="764.857143" cy="62.852071" rx="2.857143" ry="2.852071"/><ellipse cx="216.285714" cy="336.650888" rx="2.857143" ry="2.852071"/><ellipse cx="764.857143" cy="336.650888" rx="2.857143" ry="2.852071"/><ellipse cx="490.571429" cy="199.751479" rx="2.857143" ry="2.852071"/><ellipse cx="490.571429" cy="473.550296" rx="2.857143" ry="2.852071"/><ellipse cx="216.285714" cy="199.751479" rx="2.857143" ry="2.852071"/><ellipse cx="764.857143" cy="199.751479" rx="2.857143" ry="2.852071"/><ellipse cx="216.285714" cy="473.550296" rx="2.857143" ry="2.852071"/><ellipse cx="764.857143" cy="473.550296" rx="2.857143" ry="2.852071"/></g><path d="m0 0h1083v1083h-1083z" fill="url(#a)"/></g></g></svg>